<svg xmlns="http://www.w3.org/2000/svg" width="24" height="24" viewBox="0 0 24 24">
    <g fill="none" fill-rule="evenodd" stroke="#4A4A4A" stroke-linecap="round" stroke-linejoin="round">
        <path d="M17.812 8.544a1.274 1.274 0 1 1-2.547 0 1.274 1.274 0 0 1 2.547 0z"/>
        <path d="M13.733 10.42l-.188.19a.41.41 0 0 0 .008.579l.398.387c.161.158.42.153.577-.008l.18-.184a.41.41 0 0 1 .478-.079c.127.063.26.116.395.161a.41.41 0 0 1 .287.39v.256c0 .226.182.408.408.408h.556a.408.408 0 0 0 .408-.408v-.268c0-.177.116-.331.284-.388.126-.043.248-.093.366-.15a.41.41 0 0 1 .477.078l.18.184c.158.161.416.166.577.008l.398-.387a.41.41 0 0 0 .009-.578l-.188-.192a.41.41 0 0 1-.068-.475c.069-.133.127-.273.175-.417a.41.41 0 0 1 .388-.28h.269a.408.408 0 0 0 .408-.409v-.556a.408.408 0 0 0-.408-.408h-.258a.413.413 0 0 1-.39-.29 3.108 3.108 0 0 0-.182-.438.413.413 0 0 1 .066-.478l.188-.192a.41.41 0 0 0-.01-.578l-.397-.387a.41.41 0 0 0-.577.008l-.18.184a.412.412 0 0 1-.477.08 3.01 3.01 0 0 0-.396-.161.41.41 0 0 1-.286-.389v-.258a.408.408 0 0 0-.408-.408h-.557a.408.408 0 0 0-.408.408v.268c0 .177-.116.331-.283.388a3.142 3.142 0 0 0-.366.15.41.41 0 0 1-.477-.078l-.18-.184a.41.41 0 0 0-.578-.008l-.398.387a.41.41 0 0 0-.008.578l.188.193a.41.41 0 0 1 .068.474 3.148 3.148 0 0 0-.176.417.41.41 0 0 1-.388.28h-.268a.408.408 0 0 0-.408.409v.556c0 .225.182.408.408.408h.257c.18 0 .334.12.39.29.05.151.111.297.184.438.08.159.056.35-.067.478zM12.834 14.76a2.108 2.108 0 1 1-3.909-1.578 2.108 2.108 0 0 1 3.909 1.579z"/>
        <path d="M9.943 8.756l-.273-.669a.674.674 0 0 0-.88-.37l-.852.349a.674.674 0 0 0-.37.88l.17.413a.68.68 0 0 1-.19.77 5.175 5.175 0 0 0-.529.529.674.674 0 0 1-.767.192l-.414-.166a.676.676 0 0 0-.878.374l-.345.852a.677.677 0 0 0 .374.88l.396.158a.681.681 0 0 1 .418.686c-.017.264-.014.526.01.785a.683.683 0 0 1-.399.693l-.405.18a.673.673 0 0 0-.346.89l.37.84c.151.341.549.496.891.346l.39-.172a.679.679 0 0 1 .78.174c.157.175.326.34.509.493.225.19.31.5.2.773l-.16.397a.675.675 0 0 0 .372.878l.854.344a.673.673 0 0 0 .878-.373l.167-.412a.677.677 0 0 1 .674-.42c.22.013.439.011.655-.004a.68.68 0 0 1 .685.415l.162.395c.14.345.535.51.88.37l.85-.349a.673.673 0 0 0 .37-.88l-.168-.412a.675.675 0 0 1 .19-.77c.187-.163.363-.34.526-.53a.678.678 0 0 1 .769-.192l.413.166a.675.675 0 0 0 .879-.373l.344-.853a.675.675 0 0 0-.374-.878l-.67-.271"/>
    </g>
</svg>
