<svg xmlns="http://www.w3.org/2000/svg" width="24" height="24" viewBox="0 0 24 24">
    <g fill="none" fill-rule="evenodd">
        <path stroke="gray" stroke-linecap="round" stroke-linejoin="round" d="M8.863 4.389H3.944c-.858 0-1.555.697-1.555 1.555V17.34h6.777c1.01 0 1.993.51 2.453 1.41.133.26.23.555.26.888V7.405a3.016 3.016 0 0 0-3.016-3.016z"/>
        <path stroke="gray" stroke-linecap="round" stroke-linejoin="round" d="M14.894 4.389h4.918c.86 0 1.556.697 1.556 1.555V17.34h-6.777c-1.01 0-1.992.51-2.454 1.41-.133.26-.228.555-.259.888V7.405a3.016 3.016 0 0 1 3.016-3.016zM8.916 19.939H2.39v-2.6h7.2"/>
        <path stroke="gray" stroke-linecap="round" stroke-linejoin="round" d="M14.841 19.939h6.527v-2.6h-7.2M5.968 15.028H8.3M5.19 12.384h3.888M5.19 9.74h3.888M5.19 7.095h3.888"/>
        <path fill="gray" d="M18.429 6.852a4.417 4.417 0 1 1 0 8.834 4.417 4.417 0 0 1 0-8.834zm-.865 2.82v3.164a.35.35 0 0 0 .55.286l2.26-1.582a.349.349 0 0 0 0-.572l-2.26-1.582a.35.35 0 0 0-.55.287z"/>
    </g>
</svg>
