<svg xmlns="http://www.w3.org/2000/svg" width="24" height="24" viewBox="0 0 24 24">
    <g fill="gray" fill-rule="evenodd">
        <path fill-rule="nonzero" d="M16.863 6.173a.455.455 0 0 1 0-.91h3.154c.979 0 1.772.794 1.772 1.773V19.98c0 .98-.793 1.773-1.772 1.773H4.227a1.773 1.773 0 0 1-1.773-1.773V7.036c0-.979.794-1.772 1.773-1.772h.343a.455.455 0 0 1 0 .909h-.343a.864.864 0 0 0-.864.863V19.98c0 .477.387.864.864.864h15.79a.863.863 0 0 0 .862-.864V7.036a.863.863 0 0 0-.862-.863h-3.154z"/>
        <path fill-rule="nonzero" d="M7.425 6.264c-.251 0-.455-.224-.455-.5s.204-.5.455-.5h6.773c.25 0 .454.224.454.5s-.203.5-.454.5H7.425z"/>
        <path fill-rule="nonzero" d="M6.97 2.91c0-.252.224-.455.5-.455.277 0 .5.203.5.454v5.618c0 .251-.223.455-.5.455-.276 0-.5-.204-.5-.455V2.909zM16.334 2.91c0-.252.224-.455.5-.455s.5.203.5.454v5.618c0 .251-.224.455-.5.455s-.5-.204-.5-.455V2.909z"/>
        <path d="M10.971 15.61a.823.823 0 1 1-1.165-1.164.823.823 0 0 1 1.165 1.163M7.505 15.61a.823.823 0 1 1-1.164-1.164.823.823 0 0 1 1.164 1.163M7.505 18.776a.823.823 0 1 1-1.164-1.162.823.823 0 0 1 1.164 1.162M10.971 18.776a.823.823 0 1 1-1.165-1.162.823.823 0 0 1 1.165 1.162M7.505 12.441a.823.823 0 1 1-1.164-1.162.823.823 0 0 1 1.164 1.162M10.971 12.441a.823.823 0 1 1-1.165-1.162.823.823 0 0 1 1.165 1.162M14.406 12.406a.823.823 0 1 1-1.165-1.163.823.823 0 0 1 1.165 1.163M14.406 15.606a.823.823 0 1 1-1.165-1.163.823.823 0 0 1 1.165 1.163M14.406 18.776a.823.823 0 1 1-1.165-1.163.823.823 0 0 1 1.165 1.163M16.64 12.406a.824.824 0 1 1 1.168-1.165.824.824 0 0 1-1.167 1.165zM17.806 15.606a.824.824 0 1 1-1.165-1.165.824.824 0 0 1 1.165 1.165M17.806 18.776a.824.824 0 1 1-1.165-1.165.824.824 0 0 1 1.165 1.165"/>
    </g>
</svg>
