<svg xmlns="http://www.w3.org/2000/svg" width="18" height="18" viewBox="0 0 24 24">
    <g fill="none" fill-rule="evenodd">
        <path fill="#1890ff" d="M13.172 12.126a1.272 1.272 0 1 1-2.544 0 1.272 1.272 0 0 1 2.544 0"/>
        <path stroke="#1890ff" stroke-linecap="round" stroke-linejoin="round" d="M14.463 8.324a4.58 4.58 0 0 1 2.022 3.802 4.581 4.581 0 0 1-1.788 3.634M9.058 15.726a4.58 4.58 0 0 1-1.745-3.6c0-1.453.676-2.748 1.73-3.588M17.061 5.5a8.386 8.386 0 0 1 3.237 6.626 8.38 8.38 0 0 1-2.98 6.418M6.563 18.613A8.384 8.384 0 0 1 3.5 12.127a8.382 8.382 0 0 1 3.114-6.529"/>
    </g>
</svg>
